<svg width="132" height="115" viewBox="0 0 132 115" fill="none" xmlns="http://www.w3.org/2000/svg">
<g opacity="0.3">
<mask id="mask0_58_283" style="mask-type:alpha" maskUnits="userSpaceOnUse" x="0" y="0" width="11" height="11">
<path d="M5.22838 10.4252C8.11594 10.4252 10.4568 8.09145 10.4568 5.21269C10.4568 2.33393 8.11594 0.000244141 5.22838 0.000244141C2.34082 0.000244141 0 2.33393 0 5.21269C0 8.09145 2.34082 10.4252 5.22838 10.4252Z" fill="url(#paint0_linear_58_283)"/>
</mask>
<g mask="url(#mask0_58_283)">
<path d="M5.22838 10.4252C8.11594 10.4252 10.4568 8.09145 10.4568 5.21269C10.4568 2.33393 8.11594 0.000244141 5.22838 0.000244141C2.34082 0.000244141 0 2.33393 0 5.21269C0 8.09145 2.34082 10.4252 5.22838 10.4252Z" fill="url(#paint1_linear_58_283)"/>
</g>
<mask id="mask1_58_283" style="mask-type:alpha" maskUnits="userSpaceOnUse" x="30" y="0" width="11" height="11">
<path d="M35.5095 10.4252C38.397 10.4252 40.7378 8.09145 40.7378 5.21269C40.7378 2.33393 38.397 0.000244141 35.5095 0.000244141C32.6219 0.000244141 30.2811 2.33393 30.2811 5.21269C30.2811 8.09145 32.6219 10.4252 35.5095 10.4252Z" fill="url(#paint2_linear_58_283)"/>
</mask>
<g mask="url(#mask1_58_283)">
<path d="M35.5095 10.4252C38.397 10.4252 40.7378 8.09145 40.7378 5.21269C40.7378 2.33393 38.397 0.000244141 35.5095 0.000244141C32.6219 0.000244141 30.2811 2.33393 30.2811 5.21269C30.2811 8.09145 32.6219 10.4252 35.5095 10.4252Z" fill="url(#paint3_linear_58_283)"/>
</g>
<mask id="mask2_58_283" style="mask-type:alpha" maskUnits="userSpaceOnUse" x="60" y="0" width="12" height="11">
<path d="M65.7905 10.4252C68.6781 10.4252 71.0189 8.09145 71.0189 5.21269C71.0189 2.33393 68.6781 0.000244141 65.7905 0.000244141C62.9029 0.000244141 60.5621 2.33393 60.5621 5.21269C60.5621 8.09145 62.9029 10.4252 65.7905 10.4252Z" fill="url(#paint4_linear_58_283)"/>
</mask>
<g mask="url(#mask2_58_283)">
<path d="M65.7905 10.4252C68.6781 10.4252 71.0189 8.09145 71.0189 5.21269C71.0189 2.33393 68.6781 0.000244141 65.7905 0.000244141C62.9029 0.000244141 60.5621 2.33393 60.5621 5.21269C60.5621 8.09145 62.9029 10.4252 65.7905 10.4252Z" fill="url(#paint5_linear_58_283)"/>
</g>
<mask id="mask3_58_283" style="mask-type:alpha" maskUnits="userSpaceOnUse" x="90" y="0" width="12" height="11">
<path d="M96.0716 10.4252C98.9592 10.4252 101.3 8.09145 101.3 5.21269C101.3 2.33393 98.9592 0.000244141 96.0716 0.000244141C93.184 0.000244141 90.8432 2.33393 90.8432 5.21269C90.8432 8.09145 93.184 10.4252 96.0716 10.4252Z" fill="url(#paint6_linear_58_283)"/>
</mask>
<g mask="url(#mask3_58_283)">
<path d="M96.0716 10.4252C98.9592 10.4252 101.3 8.09145 101.3 5.21269C101.3 2.33393 98.9592 0.000244141 96.0716 0.000244141C93.184 0.000244141 90.8432 2.33393 90.8432 5.21269C90.8432 8.09145 93.184 10.4252 96.0716 10.4252Z" fill="url(#paint7_linear_58_283)"/>
</g>
<mask id="mask4_58_283" style="mask-type:alpha" maskUnits="userSpaceOnUse" x="121" y="0" width="11" height="11">
<path d="M126.353 10.4252C129.24 10.4252 131.581 8.09145 131.581 5.21269C131.581 2.33393 129.24 0.000244141 126.353 0.000244141C123.465 0.000244141 121.124 2.33393 121.124 5.21269C121.124 8.09145 123.465 10.4252 126.353 10.4252Z" fill="url(#paint8_linear_58_283)"/>
</mask>
<g mask="url(#mask4_58_283)">
<path d="M126.353 10.4252C129.24 10.4252 131.581 8.09145 131.581 5.21269C131.581 2.33393 129.24 0.000244141 126.353 0.000244141C123.465 0.000244141 121.124 2.33393 121.124 5.21269C121.124 8.09145 123.465 10.4252 126.353 10.4252Z" fill="url(#paint9_linear_58_283)"/>
</g>
<mask id="mask5_58_283" style="mask-type:alpha" maskUnits="userSpaceOnUse" x="0" y="26" width="11" height="11">
<path d="M5.22838 36.596C8.11594 36.596 10.4568 34.2623 10.4568 31.3836C10.4568 28.5048 8.11594 26.1711 5.22838 26.1711C2.34082 26.1711 0 28.5048 0 31.3836C0 34.2623 2.34082 36.596 5.22838 36.596Z" fill="url(#paint10_linear_58_283)"/>
</mask>
<g mask="url(#mask5_58_283)">
<path d="M5.22838 36.596C8.11594 36.596 10.4568 34.2623 10.4568 31.3836C10.4568 28.5048 8.11594 26.1711 5.22838 26.1711C2.34082 26.1711 0 28.5048 0 31.3836C0 34.2623 2.34082 36.596 5.22838 36.596Z" fill="url(#paint11_linear_58_283)"/>
</g>
<mask id="mask6_58_283" style="mask-type:alpha" maskUnits="userSpaceOnUse" x="30" y="26" width="11" height="11">
<path d="M35.5095 36.596C38.397 36.596 40.7378 34.2623 40.7378 31.3836C40.7378 28.5048 38.397 26.1711 35.5095 26.1711C32.6219 26.1711 30.2811 28.5048 30.2811 31.3836C30.2811 34.2623 32.6219 36.596 35.5095 36.596Z" fill="url(#paint12_linear_58_283)"/>
</mask>
<g mask="url(#mask6_58_283)">
<path d="M35.5095 36.596C38.397 36.596 40.7378 34.2623 40.7378 31.3836C40.7378 28.5048 38.397 26.1711 35.5095 26.1711C32.6219 26.1711 30.2811 28.5048 30.2811 31.3836C30.2811 34.2623 32.6219 36.596 35.5095 36.596Z" fill="url(#paint13_linear_58_283)"/>
</g>
<mask id="mask7_58_283" style="mask-type:alpha" maskUnits="userSpaceOnUse" x="60" y="26" width="12" height="11">
<path d="M65.7905 36.596C68.6781 36.596 71.0189 34.2623 71.0189 31.3836C71.0189 28.5048 68.6781 26.1711 65.7905 26.1711C62.9029 26.1711 60.5621 28.5048 60.5621 31.3836C60.5621 34.2623 62.9029 36.596 65.7905 36.596Z" fill="url(#paint14_linear_58_283)"/>
</mask>
<g mask="url(#mask7_58_283)">
<path d="M65.7905 36.596C68.6781 36.596 71.0189 34.2623 71.0189 31.3836C71.0189 28.5048 68.6781 26.1711 65.7905 26.1711C62.9029 26.1711 60.5621 28.5048 60.5621 31.3836C60.5621 34.2623 62.9029 36.596 65.7905 36.596Z" fill="url(#paint15_linear_58_283)"/>
</g>
<mask id="mask8_58_283" style="mask-type:alpha" maskUnits="userSpaceOnUse" x="90" y="26" width="12" height="11">
<path d="M96.0716 36.596C98.9592 36.596 101.3 34.2623 101.3 31.3836C101.3 28.5048 98.9592 26.1711 96.0716 26.1711C93.184 26.1711 90.8432 28.5048 90.8432 31.3836C90.8432 34.2623 93.184 36.596 96.0716 36.596Z" fill="url(#paint16_linear_58_283)"/>
</mask>
<g mask="url(#mask8_58_283)">
<path d="M96.0716 36.596C98.9592 36.596 101.3 34.2623 101.3 31.3836C101.3 28.5048 98.9592 26.1711 96.0716 26.1711C93.184 26.1711 90.8432 28.5048 90.8432 31.3836C90.8432 34.2623 93.184 36.596 96.0716 36.596Z" fill="url(#paint17_linear_58_283)"/>
</g>
<mask id="mask9_58_283" style="mask-type:alpha" maskUnits="userSpaceOnUse" x="121" y="26" width="11" height="11">
<path d="M126.353 36.596C129.24 36.596 131.581 34.2623 131.581 31.3836C131.581 28.5048 129.24 26.1711 126.353 26.1711C123.465 26.1711 121.124 28.5048 121.124 31.3836C121.124 34.2623 123.465 36.596 126.353 36.596Z" fill="url(#paint18_linear_58_283)"/>
</mask>
<g mask="url(#mask9_58_283)">
<path d="M126.353 36.596C129.24 36.596 131.581 34.2623 131.581 31.3836C131.581 28.5048 129.24 26.1711 126.353 26.1711C123.465 26.1711 121.124 28.5048 121.124 31.3836C121.124 34.2623 123.465 36.596 126.353 36.596Z" fill="url(#paint19_linear_58_283)"/>
</g>
<mask id="mask10_58_283" style="mask-type:alpha" maskUnits="userSpaceOnUse" x="0" y="52" width="11" height="11">
<path d="M5.22838 62.7126C8.11594 62.7126 10.4568 60.3789 10.4568 57.5001C10.4568 54.6213 8.11594 52.2876 5.22838 52.2876C2.34082 52.2876 0 54.6213 0 57.5001C0 60.3789 2.34082 62.7126 5.22838 62.7126Z" fill="url(#paint20_linear_58_283)"/>
</mask>
<g mask="url(#mask10_58_283)">
<path d="M5.22838 62.7126C8.11594 62.7126 10.4568 60.3789 10.4568 57.5001C10.4568 54.6213 8.11594 52.2876 5.22838 52.2876C2.34082 52.2876 0 54.6213 0 57.5001C0 60.3789 2.34082 62.7126 5.22838 62.7126Z" fill="url(#paint21_linear_58_283)"/>
</g>
<mask id="mask11_58_283" style="mask-type:alpha" maskUnits="userSpaceOnUse" x="30" y="52" width="11" height="11">
<path d="M35.5095 62.7126C38.397 62.7126 40.7378 60.3789 40.7378 57.5001C40.7378 54.6213 38.397 52.2876 35.5095 52.2876C32.6219 52.2876 30.2811 54.6213 30.2811 57.5001C30.2811 60.3789 32.6219 62.7126 35.5095 62.7126Z" fill="url(#paint22_linear_58_283)"/>
</mask>
<g mask="url(#mask11_58_283)">
<path d="M35.5095 62.7126C38.397 62.7126 40.7378 60.3789 40.7378 57.5001C40.7378 54.6213 38.397 52.2876 35.5095 52.2876C32.6219 52.2876 30.2811 54.6213 30.2811 57.5001C30.2811 60.3789 32.6219 62.7126 35.5095 62.7126Z" fill="url(#paint23_linear_58_283)"/>
</g>
<mask id="mask12_58_283" style="mask-type:alpha" maskUnits="userSpaceOnUse" x="0" y="78" width="11" height="11">
<path d="M5.22838 88.8835C8.11594 88.8835 10.4568 86.5497 10.4568 83.6709C10.4568 80.7922 8.11594 78.4585 5.22838 78.4585C2.34082 78.4585 0 80.7922 0 83.6709C0 86.5497 2.34082 88.8835 5.22838 88.8835Z" fill="url(#paint24_linear_58_283)"/>
</mask>
<g mask="url(#mask12_58_283)">
<path d="M5.22838 88.8835C8.11594 88.8835 10.4568 86.5497 10.4568 83.6709C10.4568 80.7922 8.11594 78.4585 5.22838 78.4585C2.34082 78.4585 0 80.7922 0 83.6709C0 86.5497 2.34082 88.8835 5.22838 88.8835Z" fill="url(#paint25_linear_58_283)"/>
</g>
<mask id="mask13_58_283" style="mask-type:alpha" maskUnits="userSpaceOnUse" x="30" y="78" width="11" height="11">
<path d="M35.5095 88.8835C38.397 88.8835 40.7378 86.5497 40.7378 83.6709C40.7378 80.7922 38.397 78.4585 35.5095 78.4585C32.6219 78.4585 30.2811 80.7922 30.2811 83.6709C30.2811 86.5497 32.6219 88.8835 35.5095 88.8835Z" fill="url(#paint26_linear_58_283)"/>
</mask>
<g mask="url(#mask13_58_283)">
<path d="M35.5095 88.8835C38.397 88.8835 40.7378 86.5497 40.7378 83.6709C40.7378 80.7922 38.397 78.4585 35.5095 78.4585C32.6219 78.4585 30.2811 80.7922 30.2811 83.6709C30.2811 86.5497 32.6219 88.8835 35.5095 88.8835Z" fill="url(#paint27_linear_58_283)"/>
</g>
<mask id="mask14_58_283" style="mask-type:alpha" maskUnits="userSpaceOnUse" x="0" y="104" width="11" height="11">
<path d="M5.22838 115C8.11594 115 10.4568 112.666 10.4568 109.788C10.4568 106.909 8.11594 104.575 5.22838 104.575C2.34082 104.575 0 106.909 0 109.788C0 112.666 2.34082 115 5.22838 115Z" fill="url(#paint28_linear_58_283)"/>
</mask>
<g mask="url(#mask14_58_283)">
<path d="M5.22838 115C8.11594 115 10.4568 112.666 10.4568 109.788C10.4568 106.909 8.11594 104.575 5.22838 104.575C2.34082 104.575 0 106.909 0 109.788C0 112.666 2.34082 115 5.22838 115Z" fill="url(#paint29_linear_58_283)"/>
</g>
<mask id="mask15_58_283" style="mask-type:alpha" maskUnits="userSpaceOnUse" x="30" y="104" width="11" height="11">
<path d="M35.5095 115C38.397 115 40.7378 112.666 40.7378 109.788C40.7378 106.909 38.397 104.575 35.5095 104.575C32.6219 104.575 30.2811 106.909 30.2811 109.788C30.2811 112.666 32.6219 115 35.5095 115Z" fill="url(#paint30_linear_58_283)"/>
</mask>
<g mask="url(#mask15_58_283)">
<path d="M35.5095 115C38.397 115 40.7378 112.666 40.7378 109.788C40.7378 106.909 38.397 104.575 35.5095 104.575C32.6219 104.575 30.2811 106.909 30.2811 109.788C30.2811 112.666 32.6219 115 35.5095 115Z" fill="url(#paint31_linear_58_283)"/>
</g>
</g>
<defs>
<linearGradient id="paint0_linear_58_283" x1="54.996" y1="131.134" x2="-16.4057" y2="-50.6697" gradientUnits="userSpaceOnUse">
<stop/>
<stop offset="1" stop-color="white"/>
</linearGradient>
<linearGradient id="paint1_linear_58_283" x1="54.996" y1="131.134" x2="-16.4057" y2="-50.6697" gradientUnits="userSpaceOnUse">
<stop stop-color="#97C3F9"/>
<stop offset="1" stop-color="#93C1F9"/>
</linearGradient>
<linearGradient id="paint2_linear_58_283" x1="81.2005" y1="120.843" x2="9.79889" y2="-60.961" gradientUnits="userSpaceOnUse">
<stop/>
<stop offset="1" stop-color="white"/>
</linearGradient>
<linearGradient id="paint3_linear_58_283" x1="81.2005" y1="120.843" x2="9.79889" y2="-60.961" gradientUnits="userSpaceOnUse">
<stop stop-color="#97C3F9"/>
<stop offset="1" stop-color="#93C1F9"/>
</linearGradient>
<linearGradient id="paint4_linear_58_283" x1="107.405" y1="110.551" x2="36.0033" y2="-71.2523" gradientUnits="userSpaceOnUse">
<stop/>
<stop offset="1" stop-color="white"/>
</linearGradient>
<linearGradient id="paint5_linear_58_283" x1="107.405" y1="110.551" x2="36.0033" y2="-71.2523" gradientUnits="userSpaceOnUse">
<stop stop-color="#97C3F9"/>
<stop offset="1" stop-color="#93C1F9"/>
</linearGradient>
<linearGradient id="paint6_linear_58_283" x1="133.609" y1="100.26" x2="62.2075" y2="-81.5442" gradientUnits="userSpaceOnUse">
<stop/>
<stop offset="1" stop-color="white"/>
</linearGradient>
<linearGradient id="paint7_linear_58_283" x1="133.609" y1="100.26" x2="62.2075" y2="-81.5442" gradientUnits="userSpaceOnUse">
<stop stop-color="#97C3F9"/>
<stop offset="1" stop-color="#93C1F9"/>
</linearGradient>
<linearGradient id="paint8_linear_58_283" x1="159.813" y1="89.9682" x2="88.4119" y2="-91.8357" gradientUnits="userSpaceOnUse">
<stop/>
<stop offset="1" stop-color="white"/>
</linearGradient>
<linearGradient id="paint9_linear_58_283" x1="159.813" y1="89.9682" x2="88.4119" y2="-91.8357" gradientUnits="userSpaceOnUse">
<stop stop-color="#97C3F9"/>
<stop offset="1" stop-color="#93C1F9"/>
</linearGradient>
<linearGradient id="paint10_linear_58_283" x1="46.0538" y1="134.646" x2="-25.3466" y2="-47.1569" gradientUnits="userSpaceOnUse">
<stop/>
<stop offset="1" stop-color="white"/>
</linearGradient>
<linearGradient id="paint11_linear_58_283" x1="46.0538" y1="134.646" x2="-25.3466" y2="-47.1569" gradientUnits="userSpaceOnUse">
<stop stop-color="#97C3F9"/>
<stop offset="1" stop-color="#93C1F9"/>
</linearGradient>
<linearGradient id="paint12_linear_58_283" x1="72.2581" y1="124.354" x2="0.857718" y2="-57.4488" gradientUnits="userSpaceOnUse">
<stop/>
<stop offset="1" stop-color="white"/>
</linearGradient>
<linearGradient id="paint13_linear_58_283" x1="72.2581" y1="124.354" x2="0.857718" y2="-57.4488" gradientUnits="userSpaceOnUse">
<stop stop-color="#97C3F9"/>
<stop offset="1" stop-color="#93C1F9"/>
</linearGradient>
<linearGradient id="paint14_linear_58_283" x1="98.4624" y1="114.062" x2="27.062" y2="-67.7401" gradientUnits="userSpaceOnUse">
<stop/>
<stop offset="1" stop-color="white"/>
</linearGradient>
<linearGradient id="paint15_linear_58_283" x1="98.4624" y1="114.062" x2="27.062" y2="-67.7401" gradientUnits="userSpaceOnUse">
<stop stop-color="#97C3F9"/>
<stop offset="1" stop-color="#93C1F9"/>
</linearGradient>
<linearGradient id="paint16_linear_58_283" x1="124.667" y1="103.771" x2="53.2663" y2="-78.0316" gradientUnits="userSpaceOnUse">
<stop/>
<stop offset="1" stop-color="white"/>
</linearGradient>
<linearGradient id="paint17_linear_58_283" x1="124.667" y1="103.771" x2="53.2663" y2="-78.0316" gradientUnits="userSpaceOnUse">
<stop stop-color="#97C3F9"/>
<stop offset="1" stop-color="#93C1F9"/>
</linearGradient>
<linearGradient id="paint18_linear_58_283" x1="150.871" y1="93.4795" x2="79.4707" y2="-88.3229" gradientUnits="userSpaceOnUse">
<stop/>
<stop offset="1" stop-color="white"/>
</linearGradient>
<linearGradient id="paint19_linear_58_283" x1="150.871" y1="93.4795" x2="79.4707" y2="-88.3229" gradientUnits="userSpaceOnUse">
<stop stop-color="#97C3F9"/>
<stop offset="1" stop-color="#93C1F9"/>
</linearGradient>
<linearGradient id="paint20_linear_58_283" x1="37.1113" y1="138.158" x2="-34.2903" y2="-43.6457" gradientUnits="userSpaceOnUse">
<stop/>
<stop offset="1" stop-color="white"/>
</linearGradient>
<linearGradient id="paint21_linear_58_283" x1="37.1113" y1="138.158" x2="-34.2903" y2="-43.6457" gradientUnits="userSpaceOnUse">
<stop stop-color="#97C3F9"/>
<stop offset="1" stop-color="#93C1F9"/>
</linearGradient>
<linearGradient id="paint22_linear_58_283" x1="63.3157" y1="127.867" x2="-8.0859" y2="-53.9373" gradientUnits="userSpaceOnUse">
<stop/>
<stop offset="1" stop-color="white"/>
</linearGradient>
<linearGradient id="paint23_linear_58_283" x1="63.3157" y1="127.867" x2="-8.0859" y2="-53.9373" gradientUnits="userSpaceOnUse">
<stop stop-color="#97C3F9"/>
<stop offset="1" stop-color="#93C1F9"/>
</linearGradient>
<linearGradient id="paint24_linear_58_283" x1="28.169" y1="141.67" x2="-43.2327" y2="-40.1338" gradientUnits="userSpaceOnUse">
<stop/>
<stop offset="1" stop-color="white"/>
</linearGradient>
<linearGradient id="paint25_linear_58_283" x1="28.169" y1="141.67" x2="-43.2327" y2="-40.1338" gradientUnits="userSpaceOnUse">
<stop stop-color="#97C3F9"/>
<stop offset="1" stop-color="#93C1F9"/>
</linearGradient>
<linearGradient id="paint26_linear_58_283" x1="54.3734" y1="131.379" x2="-17.0283" y2="-50.4253" gradientUnits="userSpaceOnUse">
<stop/>
<stop offset="1" stop-color="white"/>
</linearGradient>
<linearGradient id="paint27_linear_58_283" x1="54.3734" y1="131.379" x2="-17.0283" y2="-50.4253" gradientUnits="userSpaceOnUse">
<stop stop-color="#97C3F9"/>
<stop offset="1" stop-color="#93C1F9"/>
</linearGradient>
<linearGradient id="paint28_linear_58_283" x1="19.2266" y1="145.182" x2="-52.1751" y2="-36.6217" gradientUnits="userSpaceOnUse">
<stop/>
<stop offset="1" stop-color="white"/>
</linearGradient>
<linearGradient id="paint29_linear_58_283" x1="19.2266" y1="145.182" x2="-52.1751" y2="-36.6217" gradientUnits="userSpaceOnUse">
<stop stop-color="#97C3F9"/>
<stop offset="1" stop-color="#93C1F9"/>
</linearGradient>
<linearGradient id="paint30_linear_58_283" x1="45.431" y1="134.891" x2="-25.9706" y2="-46.9132" gradientUnits="userSpaceOnUse">
<stop/>
<stop offset="1" stop-color="white"/>
</linearGradient>
<linearGradient id="paint31_linear_58_283" x1="45.431" y1="134.891" x2="-25.9706" y2="-46.9132" gradientUnits="userSpaceOnUse">
<stop stop-color="#97C3F9"/>
<stop offset="1" stop-color="#93C1F9"/>
</linearGradient>
</defs>
</svg>
