<svg width="72" height="115" viewBox="0 0 72 115" fill="none" xmlns="http://www.w3.org/2000/svg">
<g opacity="0.3">
<mask id="mask0_21_5" style="mask-type:alpha" maskUnits="userSpaceOnUse" x="0" y="0" width="12" height="11">
<path d="M5.79052 10.425C8.67808 10.425 11.0189 8.09121 11.0189 5.21245C11.0189 2.33368 8.67808 0 5.79052 0C2.90297 0 0.562134 2.33368 0.562134 5.21245C0.562134 8.09121 2.90297 10.425 5.79052 10.425Z" fill="url(#paint0_linear_21_5)"/>
</mask>
<g mask="url(#mask0_21_5)">
<path d="M5.79052 10.425C8.67808 10.425 11.0189 8.09121 11.0189 5.21245C11.0189 2.33368 8.67808 0 5.79052 0C2.90297 0 0.562134 2.33368 0.562134 5.21245C0.562134 8.09121 2.90297 10.425 5.79052 10.425Z" fill="url(#paint1_linear_21_5)"/>
</g>
<mask id="mask1_21_5" style="mask-type:alpha" maskUnits="userSpaceOnUse" x="30" y="0" width="12" height="11">
<path d="M36.0716 10.425C38.9592 10.425 41.3 8.09121 41.3 5.21245C41.3 2.33368 38.9592 0 36.0716 0C33.184 0 30.8432 2.33368 30.8432 5.21245C30.8432 8.09121 33.184 10.425 36.0716 10.425Z" fill="url(#paint2_linear_21_5)"/>
</mask>
<g mask="url(#mask1_21_5)">
<path d="M36.0716 10.425C38.9592 10.425 41.3 8.09121 41.3 5.21245C41.3 2.33368 38.9592 0 36.0716 0C33.184 0 30.8432 2.33368 30.8432 5.21245C30.8432 8.09121 33.184 10.425 36.0716 10.425Z" fill="url(#paint3_linear_21_5)"/>
</g>
<mask id="mask2_21_5" style="mask-type:alpha" maskUnits="userSpaceOnUse" x="61" y="0" width="11" height="11">
<path d="M66.3526 10.425C69.2402 10.425 71.581 8.09121 71.581 5.21245C71.581 2.33368 69.2402 0 66.3526 0C63.4651 0 61.1243 2.33368 61.1243 5.21245C61.1243 8.09121 63.4651 10.425 66.3526 10.425Z" fill="url(#paint4_linear_21_5)"/>
</mask>
<g mask="url(#mask2_21_5)">
<path d="M66.3526 10.425C69.2402 10.425 71.581 8.09121 71.581 5.21245C71.581 2.33368 69.2402 0 66.3526 0C63.4651 0 61.1243 2.33368 61.1243 5.21245C61.1243 8.09121 63.4651 10.425 66.3526 10.425Z" fill="url(#paint5_linear_21_5)"/>
</g>
<mask id="mask3_21_5" style="mask-type:alpha" maskUnits="userSpaceOnUse" x="0" y="26" width="12" height="11">
<path d="M5.79052 36.5958C8.67808 36.5958 11.0189 34.2621 11.0189 31.3834C11.0189 28.5046 8.67808 26.171 5.79052 26.171C2.90297 26.171 0.562134 28.5046 0.562134 31.3834C0.562134 34.2621 2.90297 36.5958 5.79052 36.5958Z" fill="url(#paint6_linear_21_5)"/>
</mask>
<g mask="url(#mask3_21_5)">
<path d="M5.79052 36.5958C8.67808 36.5958 11.0189 34.2621 11.0189 31.3834C11.0189 28.5046 8.67808 26.171 5.79052 26.171C2.90297 26.171 0.562134 28.5046 0.562134 31.3834C0.562134 34.2621 2.90297 36.5958 5.79052 36.5958Z" fill="url(#paint7_linear_21_5)"/>
</g>
<mask id="mask4_21_5" style="mask-type:alpha" maskUnits="userSpaceOnUse" x="30" y="26" width="12" height="11">
<path d="M36.0716 36.5958C38.9592 36.5958 41.3 34.2621 41.3 31.3834C41.3 28.5046 38.9592 26.171 36.0716 26.171C33.184 26.171 30.8432 28.5046 30.8432 31.3834C30.8432 34.2621 33.184 36.5958 36.0716 36.5958Z" fill="url(#paint8_linear_21_5)"/>
</mask>
<g mask="url(#mask4_21_5)">
<path d="M36.0716 36.5958C38.9592 36.5958 41.3 34.2621 41.3 31.3834C41.3 28.5046 38.9592 26.171 36.0716 26.171C33.184 26.171 30.8432 28.5046 30.8432 31.3834C30.8432 34.2621 33.184 36.5958 36.0716 36.5958Z" fill="url(#paint9_linear_21_5)"/>
</g>
<mask id="mask5_21_5" style="mask-type:alpha" maskUnits="userSpaceOnUse" x="61" y="26" width="11" height="11">
<path d="M66.3526 36.5958C69.2402 36.5958 71.581 34.2621 71.581 31.3834C71.581 28.5046 69.2402 26.171 66.3526 26.171C63.4651 26.171 61.1243 28.5046 61.1243 31.3834C61.1243 34.2621 63.4651 36.5958 66.3526 36.5958Z" fill="url(#paint10_linear_21_5)"/>
</mask>
<g mask="url(#mask5_21_5)">
<path d="M66.3526 36.5958C69.2402 36.5958 71.581 34.2621 71.581 31.3834C71.581 28.5046 69.2402 26.171 66.3526 26.171C63.4651 26.171 61.1243 28.5046 61.1243 31.3834C61.1243 34.2621 63.4651 36.5958 66.3526 36.5958Z" fill="url(#paint11_linear_21_5)"/>
</g>
<mask id="mask6_21_5" style="mask-type:alpha" maskUnits="userSpaceOnUse" x="0" y="52" width="12" height="11">
<path d="M5.79052 62.7125C8.67808 62.7125 11.0189 60.3788 11.0189 57.5C11.0189 54.6212 8.67808 52.2875 5.79052 52.2875C2.90297 52.2875 0.562134 54.6212 0.562134 57.5C0.562134 60.3788 2.90297 62.7125 5.79052 62.7125Z" fill="url(#paint12_linear_21_5)"/>
</mask>
<g mask="url(#mask6_21_5)">
<path d="M5.79052 62.7125C8.67808 62.7125 11.0189 60.3788 11.0189 57.5C11.0189 54.6212 8.67808 52.2875 5.79052 52.2875C2.90297 52.2875 0.562134 54.6212 0.562134 57.5C0.562134 60.3788 2.90297 62.7125 5.79052 62.7125Z" fill="url(#paint13_linear_21_5)"/>
</g>
<mask id="mask7_21_5" style="mask-type:alpha" maskUnits="userSpaceOnUse" x="30" y="52" width="12" height="11">
<path d="M36.0716 62.7125C38.9592 62.7125 41.3 60.3788 41.3 57.5C41.3 54.6212 38.9592 52.2875 36.0716 52.2875C33.184 52.2875 30.8432 54.6212 30.8432 57.5C30.8432 60.3788 33.184 62.7125 36.0716 62.7125Z" fill="url(#paint14_linear_21_5)"/>
</mask>
<g mask="url(#mask7_21_5)">
<path d="M36.0716 62.7125C38.9592 62.7125 41.3 60.3788 41.3 57.5C41.3 54.6212 38.9592 52.2875 36.0716 52.2875C33.184 52.2875 30.8432 54.6212 30.8432 57.5C30.8432 60.3788 33.184 62.7125 36.0716 62.7125Z" fill="url(#paint15_linear_21_5)"/>
</g>
<mask id="mask8_21_5" style="mask-type:alpha" maskUnits="userSpaceOnUse" x="61" y="52" width="11" height="11">
<path d="M66.3526 62.7125C69.2402 62.7125 71.581 60.3788 71.581 57.5C71.581 54.6212 69.2402 52.2875 66.3526 52.2875C63.4651 52.2875 61.1243 54.6212 61.1243 57.5C61.1243 60.3788 63.4651 62.7125 66.3526 62.7125Z" fill="url(#paint16_linear_21_5)"/>
</mask>
<g mask="url(#mask8_21_5)">
<path d="M66.3526 62.7125C69.2402 62.7125 71.581 60.3788 71.581 57.5C71.581 54.6212 69.2402 52.2875 66.3526 52.2875C63.4651 52.2875 61.1243 54.6212 61.1243 57.5C61.1243 60.3788 63.4651 62.7125 66.3526 62.7125Z" fill="url(#paint17_linear_21_5)"/>
</g>
<mask id="mask9_21_5" style="mask-type:alpha" maskUnits="userSpaceOnUse" x="0" y="78" width="12" height="11">
<path d="M5.79052 88.8834C8.67808 88.8834 11.0189 86.5496 11.0189 83.6709C11.0189 80.7921 8.67808 78.4584 5.79052 78.4584C2.90297 78.4584 0.562134 80.7921 0.562134 83.6709C0.562134 86.5496 2.90297 88.8834 5.79052 88.8834Z" fill="url(#paint18_linear_21_5)"/>
</mask>
<g mask="url(#mask9_21_5)">
<path d="M5.79052 88.8834C8.67808 88.8834 11.0189 86.5496 11.0189 83.6709C11.0189 80.7921 8.67808 78.4584 5.79052 78.4584C2.90297 78.4584 0.562134 80.7921 0.562134 83.6709C0.562134 86.5496 2.90297 88.8834 5.79052 88.8834Z" fill="url(#paint19_linear_21_5)"/>
</g>
<mask id="mask10_21_5" style="mask-type:alpha" maskUnits="userSpaceOnUse" x="30" y="78" width="12" height="11">
<path d="M36.0716 88.8834C38.9592 88.8834 41.3 86.5496 41.3 83.6709C41.3 80.7921 38.9592 78.4584 36.0716 78.4584C33.184 78.4584 30.8432 80.7921 30.8432 83.6709C30.8432 86.5496 33.184 88.8834 36.0716 88.8834Z" fill="url(#paint20_linear_21_5)"/>
</mask>
<g mask="url(#mask10_21_5)">
<path d="M36.0716 88.8834C38.9592 88.8834 41.3 86.5496 41.3 83.6709C41.3 80.7921 38.9592 78.4584 36.0716 78.4584C33.184 78.4584 30.8432 80.7921 30.8432 83.6709C30.8432 86.5496 33.184 88.8834 36.0716 88.8834Z" fill="url(#paint21_linear_21_5)"/>
</g>
<mask id="mask11_21_5" style="mask-type:alpha" maskUnits="userSpaceOnUse" x="61" y="78" width="11" height="11">
<path d="M66.3526 88.8834C69.2402 88.8834 71.581 86.5496 71.581 83.6709C71.581 80.7921 69.2402 78.4584 66.3526 78.4584C63.4651 78.4584 61.1243 80.7921 61.1243 83.6709C61.1243 86.5496 63.4651 88.8834 66.3526 88.8834Z" fill="url(#paint22_linear_21_5)"/>
</mask>
<g mask="url(#mask11_21_5)">
<path d="M66.3526 88.8834C69.2402 88.8834 71.581 86.5496 71.581 83.6709C71.581 80.7921 69.2402 78.4584 66.3526 78.4584C63.4651 78.4584 61.1243 80.7921 61.1243 83.6709C61.1243 86.5496 63.4651 88.8834 66.3526 88.8834Z" fill="url(#paint23_linear_21_5)"/>
</g>
<mask id="mask12_21_5" style="mask-type:alpha" maskUnits="userSpaceOnUse" x="0" y="104" width="12" height="11">
<path d="M5.79052 115C8.67808 115 11.0189 112.666 11.0189 109.788C11.0189 106.909 8.67808 104.575 5.79052 104.575C2.90297 104.575 0.562134 106.909 0.562134 109.788C0.562134 112.666 2.90297 115 5.79052 115Z" fill="url(#paint24_linear_21_5)"/>
</mask>
<g mask="url(#mask12_21_5)">
<path d="M5.79052 115C8.67808 115 11.0189 112.666 11.0189 109.788C11.0189 106.909 8.67808 104.575 5.79052 104.575C2.90297 104.575 0.562134 106.909 0.562134 109.788C0.562134 112.666 2.90297 115 5.79052 115Z" fill="url(#paint25_linear_21_5)"/>
</g>
<mask id="mask13_21_5" style="mask-type:alpha" maskUnits="userSpaceOnUse" x="30" y="104" width="12" height="11">
<path d="M36.0716 115C38.9592 115 41.3 112.666 41.3 109.788C41.3 106.909 38.9592 104.575 36.0716 104.575C33.184 104.575 30.8432 106.909 30.8432 109.788C30.8432 112.666 33.184 115 36.0716 115Z" fill="url(#paint26_linear_21_5)"/>
</mask>
<g mask="url(#mask13_21_5)">
<path d="M36.0716 115C38.9592 115 41.3 112.666 41.3 109.788C41.3 106.909 38.9592 104.575 36.0716 104.575C33.184 104.575 30.8432 106.909 30.8432 109.788C30.8432 112.666 33.184 115 36.0716 115Z" fill="url(#paint27_linear_21_5)"/>
</g>
<mask id="mask14_21_5" style="mask-type:alpha" maskUnits="userSpaceOnUse" x="61" y="104" width="11" height="11">
<path d="M66.3526 115C69.2402 115 71.581 112.666 71.581 109.788C71.581 106.909 69.2402 104.575 66.3526 104.575C63.4651 104.575 61.1243 106.909 61.1243 109.788C61.1243 112.666 63.4651 115 66.3526 115Z" fill="url(#paint28_linear_21_5)"/>
</mask>
<g mask="url(#mask14_21_5)">
<path d="M66.3526 115C69.2402 115 71.581 112.666 71.581 109.788C71.581 106.909 69.2402 104.575 66.3526 104.575C63.4651 104.575 61.1243 106.909 61.1243 109.788C61.1243 112.666 63.4651 115 66.3526 115Z" fill="url(#paint29_linear_21_5)"/>
</g>
</g>
<defs>
<linearGradient id="paint0_linear_21_5" x1="47.4049" y1="110.551" x2="-23.9967" y2="-71.2526" gradientUnits="userSpaceOnUse">
<stop/>
<stop offset="1" stop-color="white"/>
</linearGradient>
<linearGradient id="paint1_linear_21_5" x1="47.4049" y1="110.551" x2="-23.9967" y2="-71.2526" gradientUnits="userSpaceOnUse">
<stop stop-color="#97C3F9"/>
<stop offset="1" stop-color="#93C1F9"/>
</linearGradient>
<linearGradient id="paint2_linear_21_5" x1="73.6091" y1="100.259" x2="2.20752" y2="-81.5444" gradientUnits="userSpaceOnUse">
<stop/>
<stop offset="1" stop-color="white"/>
</linearGradient>
<linearGradient id="paint3_linear_21_5" x1="73.6091" y1="100.259" x2="2.20752" y2="-81.5444" gradientUnits="userSpaceOnUse">
<stop stop-color="#97C3F9"/>
<stop offset="1" stop-color="#93C1F9"/>
</linearGradient>
<linearGradient id="paint4_linear_21_5" x1="99.8135" y1="89.9679" x2="28.4119" y2="-91.8359" gradientUnits="userSpaceOnUse">
<stop/>
<stop offset="1" stop-color="white"/>
</linearGradient>
<linearGradient id="paint5_linear_21_5" x1="99.8135" y1="89.9679" x2="28.4119" y2="-91.8359" gradientUnits="userSpaceOnUse">
<stop stop-color="#97C3F9"/>
<stop offset="1" stop-color="#93C1F9"/>
</linearGradient>
<linearGradient id="paint6_linear_21_5" x1="38.4624" y1="114.062" x2="-32.9379" y2="-67.7403" gradientUnits="userSpaceOnUse">
<stop/>
<stop offset="1" stop-color="white"/>
</linearGradient>
<linearGradient id="paint7_linear_21_5" x1="38.4624" y1="114.062" x2="-32.9379" y2="-67.7403" gradientUnits="userSpaceOnUse">
<stop stop-color="#97C3F9"/>
<stop offset="1" stop-color="#93C1F9"/>
</linearGradient>
<linearGradient id="paint8_linear_21_5" x1="64.6667" y1="103.771" x2="-6.73366" y2="-78.0318" gradientUnits="userSpaceOnUse">
<stop/>
<stop offset="1" stop-color="white"/>
</linearGradient>
<linearGradient id="paint9_linear_21_5" x1="64.6667" y1="103.771" x2="-6.73366" y2="-78.0318" gradientUnits="userSpaceOnUse">
<stop stop-color="#97C3F9"/>
<stop offset="1" stop-color="#93C1F9"/>
</linearGradient>
<linearGradient id="paint10_linear_21_5" x1="90.8711" y1="93.4794" x2="19.4707" y2="-88.3231" gradientUnits="userSpaceOnUse">
<stop/>
<stop offset="1" stop-color="white"/>
</linearGradient>
<linearGradient id="paint11_linear_21_5" x1="90.8711" y1="93.4794" x2="19.4707" y2="-88.3231" gradientUnits="userSpaceOnUse">
<stop stop-color="#97C3F9"/>
<stop offset="1" stop-color="#93C1F9"/>
</linearGradient>
<linearGradient id="paint12_linear_21_5" x1="29.5201" y1="117.575" x2="-41.8815" y2="-64.2288" gradientUnits="userSpaceOnUse">
<stop/>
<stop offset="1" stop-color="white"/>
</linearGradient>
<linearGradient id="paint13_linear_21_5" x1="29.5201" y1="117.575" x2="-41.8815" y2="-64.2288" gradientUnits="userSpaceOnUse">
<stop stop-color="#97C3F9"/>
<stop offset="1" stop-color="#93C1F9"/>
</linearGradient>
<linearGradient id="paint14_linear_21_5" x1="55.7243" y1="107.283" x2="-15.6773" y2="-74.5205" gradientUnits="userSpaceOnUse">
<stop/>
<stop offset="1" stop-color="white"/>
</linearGradient>
<linearGradient id="paint15_linear_21_5" x1="55.7243" y1="107.283" x2="-15.6773" y2="-74.5205" gradientUnits="userSpaceOnUse">
<stop stop-color="#97C3F9"/>
<stop offset="1" stop-color="#93C1F9"/>
</linearGradient>
<linearGradient id="paint16_linear_21_5" x1="81.9287" y1="96.9919" x2="10.5271" y2="-84.812" gradientUnits="userSpaceOnUse">
<stop/>
<stop offset="1" stop-color="white"/>
</linearGradient>
<linearGradient id="paint17_linear_21_5" x1="81.9287" y1="96.9919" x2="10.5271" y2="-84.812" gradientUnits="userSpaceOnUse">
<stop stop-color="#97C3F9"/>
<stop offset="1" stop-color="#93C1F9"/>
</linearGradient>
<linearGradient id="paint18_linear_21_5" x1="20.5777" y1="121.087" x2="-50.8239" y2="-60.7168" gradientUnits="userSpaceOnUse">
<stop/>
<stop offset="1" stop-color="white"/>
</linearGradient>
<linearGradient id="paint19_linear_21_5" x1="20.5777" y1="121.087" x2="-50.8239" y2="-60.7168" gradientUnits="userSpaceOnUse">
<stop stop-color="#97C3F9"/>
<stop offset="1" stop-color="#93C1F9"/>
</linearGradient>
<linearGradient id="paint20_linear_21_5" x1="46.782" y1="110.795" x2="-24.6196" y2="-71.0084" gradientUnits="userSpaceOnUse">
<stop/>
<stop offset="1" stop-color="white"/>
</linearGradient>
<linearGradient id="paint21_linear_21_5" x1="46.782" y1="110.795" x2="-24.6196" y2="-71.0084" gradientUnits="userSpaceOnUse">
<stop stop-color="#97C3F9"/>
<stop offset="1" stop-color="#93C1F9"/>
</linearGradient>
<linearGradient id="paint22_linear_21_5" x1="72.9863" y1="100.504" x2="1.58471" y2="-81.3" gradientUnits="userSpaceOnUse">
<stop/>
<stop offset="1" stop-color="white"/>
</linearGradient>
<linearGradient id="paint23_linear_21_5" x1="72.9863" y1="100.504" x2="1.58471" y2="-81.3" gradientUnits="userSpaceOnUse">
<stop stop-color="#97C3F9"/>
<stop offset="1" stop-color="#93C1F9"/>
</linearGradient>
<linearGradient id="paint24_linear_21_5" x1="11.6353" y1="124.599" x2="-59.7663" y2="-57.2047" gradientUnits="userSpaceOnUse">
<stop/>
<stop offset="1" stop-color="white"/>
</linearGradient>
<linearGradient id="paint25_linear_21_5" x1="11.6353" y1="124.599" x2="-59.7663" y2="-57.2047" gradientUnits="userSpaceOnUse">
<stop stop-color="#97C3F9"/>
<stop offset="1" stop-color="#93C1F9"/>
</linearGradient>
<linearGradient id="paint26_linear_21_5" x1="37.8397" y1="114.307" x2="-33.562" y2="-67.4964" gradientUnits="userSpaceOnUse">
<stop/>
<stop offset="1" stop-color="white"/>
</linearGradient>
<linearGradient id="paint27_linear_21_5" x1="37.8397" y1="114.307" x2="-33.562" y2="-67.4964" gradientUnits="userSpaceOnUse">
<stop stop-color="#97C3F9"/>
<stop offset="1" stop-color="#93C1F9"/>
</linearGradient>
<linearGradient id="paint28_linear_21_5" x1="64.044" y1="104.016" x2="-7.35763" y2="-77.7879" gradientUnits="userSpaceOnUse">
<stop/>
<stop offset="1" stop-color="white"/>
</linearGradient>
<linearGradient id="paint29_linear_21_5" x1="64.044" y1="104.016" x2="-7.35763" y2="-77.7879" gradientUnits="userSpaceOnUse">
<stop stop-color="#97C3F9"/>
<stop offset="1" stop-color="#93C1F9"/>
</linearGradient>
</defs>
</svg>
